<?xml version="1.0" encoding="UTF-8"?>
<!DOCTYPE svg PUBLIC "-//W3C//DTD SVG 1.1//EN" "http://www.w3.org/Graphics/SVG/1.1/DTD/svg11.dtd">
<!-- Creator: CorelDRAW 2018 (64-Bit) -->
<svg xmlns="http://www.w3.org/2000/svg" xml:space="preserve" width="52.8mm" height="56.052mm" version="1.1" style="shape-rendering:geometricPrecision; text-rendering:geometricPrecision; image-rendering:optimizeQuality; fill-rule:evenodd; clip-rule:evenodd"
viewBox="0 0 5280000 5605200"
 xmlns:xlink="http://www.w3.org/1999/xlink">
 <defs>
  <style type="text/css">
   <![CDATA[
    .str1 {stroke:#F9F9F9;stroke-width:30000;stroke-miterlimit:22.9256}
    .str0 {stroke:white;stroke-width:25000;stroke-linejoin:bevel;stroke-miterlimit:22.9256}
    .fil0 {fill:none}
    .fil3 {fill:#2B2A29}
    .fil1 {fill:#67AEA2}
    .fil7 {fill:#FFF700}
    .fil4 {fill:#F9F9F9;fill-rule:nonzero}
    .fil8 {fill:#2B2A29;fill-rule:nonzero}
    .fil6 {fill:#F8F8F7;fill-rule:nonzero}
    .fil5 {fill:#1C00FF;fill-rule:nonzero}
    .fil2 {fill:#67AEA2;fill-rule:nonzero}
   ]]>
  </style>
 </defs>
 <g id="Вырезка">
  <metadata id="CorelCorpID_0Corel-Layer"/>
  <path class="fil0 str0" d="M3549980 5605190l-1820000 0 0 -665310c-246670,-142410 -493330,-284820 -740000,-427240 -123330,-71200 -246670,-142410 -370000,-213610 -61670,-35610 -123330,-71210 -185000,-106810 -30830,-17810 -61670,-35610 -92500,-53410 -15420,-8900 -30830,-17800 -46250,-26700 -7710,-4450 -15420,-8900 -23130,-13350 -7700,-4450 -15410,-8900 -23120,-13350 -4720,-2730 -9400,-5540 -14030,-8420 -4640,-2880 -9220,-5830 -13750,-8860 -9070,-6060 -17940,-12420 -26600,-19060 -17310,-13280 -33750,-27690 -49170,-43120 -30860,-30860 -57650,-65770 -79460,-103560 -21820,-37780 -38660,-78430 -49950,-120590 -5650,-21070 -9920,-42520 -12760,-64150 -1430,-10810 -2500,-21670 -3210,-32560 -360,-5440 -620,-10890 -800,-16340 -180,-5450 -270,-10900 -270,-16360 0,-7500 0,-15000 0,-22500 0,-7500 0,-15000 0,-22500 0,-15000 0,-30000 0,-45000 0,-30000 0,-60000 0,-90000 0,-60000 0,-120000 0,-180000 0,-3850 0,-7700 0,-11550 0,-793600 0,-1587200 0,-2380810 0,-61610 0,-123220 0,-184830 0,-30810 0,-61610 0,-92420 0,-15400 0,-30800 0,-46210 0,-7700 0,-15400 0,-23100 0,-7700 0,-15400 0,-23100 0,-8180 200,-16360 600,-24530 400,-8170 1000,-16320 1800,-24460 1610,-16270 4010,-32470 7200,-48520 6380,-32090 15930,-63580 28460,-93840 12530,-30250 28050,-59270 46230,-86470 9090,-13610 18840,-26760 29220,-39400 5180,-6320 10530,-12510 16020,-18570 5490,-6060 11130,-11980 16920,-17770 10110,-10110 20220,-20220 30330,-30330 5780,-5790 11710,-11430 17770,-16920 6060,-5490 12250,-10830 18570,-16020 12640,-10370 25790,-20130 39390,-29220 27210,-18180 56220,-33690 86480,-46230 30260,-12530 61750,-22080 93840,-28460 16050,-3190 32240,-5590 48520,-7190 8130,-800 16290,-1400 24460,-1810 8160,-400 16340,-600 24520,-600 5500,0 10990,0 16480,0 5500,0 10990,0 16490,0 10980,0 21970,0 32960,0 21980,0 43950,0 65930,0 43950,0 87900,0 131850,0 87900,0 175810,0 263710,0 175800,0 351610,0 527420,0 351610,0 703220,0 1054830,0 702120,0 1404250,-30 2106370,0 21950,0 43730,1220 65300,4000 21580,2780 42970,6970 64170,12580 21200,5600 42190,12640 62400,20880 20210,8240 39790,17730 58750,28450 37910,21460 73610,48240 104510,78830 7730,7650 15380,15370 23060,23050 7690,7690 15400,15350 22760,23340 14720,16000 28370,32990 40970,50990 12600,17990 24100,36980 34210,56380 10110,19390 18930,39340 26470,59830 15080,40990 25020,84620 28990,127750 990,10790 1620,21580 1890,32380 270,10800 150,21610 150,32410 0,21610 0,43220 0,64830 0,43220 0,86450 0,129670 0,345760 0,691530 0,1037290 0,345770 0,691530 0,1037300 0,172880 0,345770 0,518650 0,86440 0,172880 0,259320 0,10810 0,21610 0,32420 0,10800 120,21610 -110,32410 -460,21610 -2360,43300 -5610,64550 -6490,42510 -18230,83640 -35340,123370 -17120,39730 -39170,76670 -65670,110360 -13250,16840 -27770,33040 -43130,48120 -15350,15070 -31460,28960 -48290,41740 -16830,12780 -34400,24400 -52660,34940 -18260,10550 -36520,21090 -54780,31630 -36520,21090 -73050,42180 -109570,63270 -146090,84350 -292180,168700 -438280,253040 -292180,168690 -584370,337380 -876560,506070l0 665310z"/>
  <path class="fil1" d="M2249080 2289040c36890,-33080 96120,-33220 140890,-16540 83830,31230 217220,126910 303560,119120 33550,-3020 67570,-8820 99610,-19370l8370 -2750 6230 6230c19460,19460 39190,38640 58970,57770 22310,21580 73410,67050 89220,91770l370 640c14810,26110 49190,86510 73220,102610 13440,9000 33790,11690 49610,11690 32910,0 71860,-11050 95580,-34790 18590,-18620 42420,-50760 40830,-78670 -500,-8720 -3680,-16410 -10570,-21920 -35740,-28570 -72000,-50290 -111220,-73980 -44760,-27030 -99770,-83480 -138250,-120350 -12010,-11510 -24070,-22990 -36210,-34390l-6520 -6100 2620 -8540c4380,-14290 6920,-28910 7780,-43830 6000,-104100 -9570,-255090 94830,-315030 60650,-34830 154340,-54730 226730,-60630 -6840,-163400 -79250,-362510 -223630,-448620 -115700,-69010 -265970,-100980 -399770,-100570 -140490,430 -297630,36790 -400330,138740 -38430,38150 -73920,79700 -102480,125810 -153820,248310 -21570,518510 130560,731700zm736380 -760420c33500,-7660 66840,13340 74490,46840 7630,33520 -13360,66870 -46870,74480 -33510,7620 -66870,-13360 -74490,-46820 -7630,-33540 13350,-66900 46870,-74500zm-91340 284850c7640,33520 -13340,66870 -46870,74490 -33480,7630 -66860,-13360 -74480,-46880 -7630,-33510 13360,-66850 46860,-74480 33520,-7620 66870,13330 74490,46870zm-179400 -401100c33510,-7640 66860,13350 74490,46840 7620,33520 -13360,66870 -46860,74490 -33510,7630 -66860,-13340 -74480,-46840 -7640,-33520 13350,-66870 46850,-74490zm-566880 306050c-7620,-33520 13360,-66870 46880,-74490 33500,-7630 66820,13360 74480,46880 7630,33490 -13350,66840 -46850,74470 -33510,7640 -66890,-13340 -74510,-46860zm158700 305710c-33500,7630 -66880,-13390 -74490,-46860 -7640,-33510 13360,-66860 46860,-74510 33500,-7600 66840,13380 74470,46880 7650,33500 -13320,66860 -46840,74490zm129090 -470180c-33510,7630 -66860,-13350 -74470,-46850 -7650,-33530 13330,-66890 46850,-74510 33490,-7610 66870,13360 74490,46870 7610,33520 -13360,66860 -46870,74490zm82190 141700c33490,-7620 66840,13370 74500,46870 7620,33490 -13360,66850 -46860,74490 -33540,7630 -66890,-13350 -74510,-46870 -7630,-33490 13350,-66840 46870,-74490zm158670 588930c-84520,22600 -143360,-73770 -143360,-73770 0,0 -118090,-161680 4340,-242360 122430,-80650 171440,38910 171440,38910 0,0 64690,131130 68360,178850 2710,35110 -16270,75760 -100780,98370zm431120 298070c-16210,7430 -29450,8990 -40580,4660 -13500,-5260 -24780,-19550 -35550,-44970 -15810,-37310 -18340,-52460 -10020,-60110 9950,-9190 72420,14350 120160,50090 4940,3710 7180,8160 6630,13330 -500,4530 -4870,20640 -40640,37000z"/>
  <path class="fil2" d="M1726320 3056990l0 -354620 70330 0 83860 251020c7760,23360 13380,40860 16930,52500 4040,-12870 10400,-31860 18980,-56870l85350 -246650 62820 0 0 354620 -45070 0 0 -296670 -103510 296670 -42270 0 -102350 -302120 0 302120 -45070 0z"/>
  <path id="1" class="fil2" d="M2392470 2932590l47050 11890c-9820,38550 -27490,67850 -52990,88080 -25510,20220 -56710,30370 -93610,30370 -38140,0 -69180,-7760 -93110,-23360 -23940,-15520 -42100,-38050 -54570,-67520 -12460,-29550 -18740,-61170 -18740,-95010 0,-36900 7020,-69090 21140,-96580 14110,-27490 34170,-48370 60170,-62650 26000,-14280 54650,-21380 85850,-21380 35500,0 65300,8990 89400,27070 24190,18080 41020,43420 50520,76110l-46060 10900c-8180,-25760 -20140,-44580 -35750,-56300 -15600,-11810 -35240,-17670 -58930,-17670 -27160,0 -49950,6530 -68190,19570 -18240,13040 -31120,30620 -38460,52580 -7430,22040 -11150,44740 -11150,68100 0,30130 4380,56460 13130,78920 8750,22530 22370,39290 40860,50430 18490,11150 38460,16680 60010,16680 26250,0 48370,-7600 66530,-22700 18160,-15190 30460,-37650 36900,-67530z"/>
  <path id="2" class="fil2" d="M2482190 2943080l44080 -3970c2070,17830 6940,32440 14610,43920 7680,11390 19570,20630 35660,27730 16100,7020 34260,10570 54400,10570 17910,0 33680,-2640 47380,-8010 13710,-5360 23860,-12710 30550,-22040 6680,-9320 10070,-19480 10070,-30370 0,-11070 -3220,-20720 -9660,-29060 -6440,-8260 -17090,-15190 -31950,-20890 -9490,-3630 -30540,-9410 -63140,-17250 -32610,-7840 -55390,-15190 -68440,-22120 -16920,-8910 -29470,-19980 -37720,-33100 -8340,-13130 -12460,-27900 -12460,-44160 0,-18000 5110,-34760 15270,-50270 10150,-15610 24930,-27410 44490,-35500 19480,-8090 41190,-12130 65050,-12130 26250,0 49440,4210 69500,12710 20060,8420 35500,20880 46310,37390 10810,16430 16590,35080 17420,55890l-45070 3460c-2400,-22370 -10570,-39290 -24520,-50680 -13950,-11470 -34590,-17170 -61830,-17170 -28390,0 -49110,5200 -62070,15600 -12960,10400 -19480,22950 -19480,37640 0,12710 4620,23200 13780,31450 9080,8170 32610,16680 70740,25260 38140,8670 64310,16180 78510,22620 20550,9490 35820,21460 45640,36070 9830,14530 14700,31290 14700,50270 0,18910 -5370,36570 -16180,53250 -10820,16670 -26250,29630 -46480,38880 -20220,9240 -42920,13860 -68260,13860 -32030,0 -58860,-4700 -80480,-14030 -21710,-9330 -38640,-23360 -50940,-42180 -12380,-18740 -18820,-39950 -19480,-63640z"/>
  <path id="3" class="fil2" d="M2990350 2962890l42590 5940c-4700,29300 -16590,52170 -35820,68760 -19240,16590 -42930,24850 -70910,24850 -35080,0 -63310,-11480 -84610,-34420 -21380,-22950 -32030,-55810 -32030,-98560 0,-27740 4620,-51930 13790,-72730 9160,-20720 23110,-36320 41930,-46640 18740,-10400 39130,-15600 61250,-15600 27820,0 50680,7020 68350,21130 17750,14120 29140,34180 34090,60100l-42100 6440c-4040,-17260 -11140,-30220 -21460,-38970 -10240,-8660 -22620,-13040 -37150,-13040 -21950,0 -39780,7840 -53570,23530 -13700,15760 -20550,40530 -20550,74540 0,34500 6600,59510 19810,75110 13290,15610 30540,23450 51750,23450 17170,0 31450,-5200 42850,-15690 11470,-10400 18730,-26490 21790,-48200z"/>
  <path id="4" class="fil2" d="M3237990 3024800c-16180,13780 -31780,23440 -46720,29140 -14940,5690 -30960,8500 -48130,8500 -28230,0 -49940,-6850 -65130,-20640 -15190,-13700 -22780,-31280 -22780,-52660 0,-12550 2890,-24020 8580,-34430 5780,-10400 13290,-18650 22540,-24920 9330,-6280 19730,-11070 31370,-14280 8580,-2230 21540,-4380 38790,-6530 35170,-4120 61170,-9160 77760,-14940 170,-5940 250,-9740 250,-11310 0,-17660 -4130,-30130 -12380,-37390 -11140,-9820 -27740,-14690 -49690,-14690 -20560,0 -35750,3630 -45490,10810 -9820,7180 -17000,19890 -21710,38220l-42590 -5940c3880,-18250 10240,-33020 19150,-44250 8920,-11220 21790,-19810 38630,-25920 16760,-6020 36320,-9080 58440,-9080 21960,0 39880,2560 53660,7760 13700,5200 23860,11640 30290,19480 6440,7840 10980,17750 13630,29720 1400,7430 2140,20800 2140,40030l0 57790c0,40360 910,65870 2730,76680 1730,10820 5360,21130 10640,31040l-45560 0c-4380,-9160 -7180,-19890 -8420,-32190zm-3470 -96580c-15850,6440 -39620,11880 -71320,16340 -17990,2560 -30710,5450 -38140,8670 -7420,3220 -13120,7920 -17170,14030 -4040,6190 -6100,13040 -6100,20640 0,11470 4370,21130 13200,28810 8840,7670 21710,11550 38640,11550 16750,0 31690,-3630 44820,-10970 13040,-7270 22700,-17260 28810,-29890 4700,-9820 7010,-24270 7010,-43330l250 -15850z"/>
  <path id="5" class="fil2" d="M3345550 3155550l0 -355610 39620 0 0 33760c9330,-13040 19890,-22860 31700,-29390 11720,-6520 26000,-9820 42760,-9820 21960,0 41270,5610 58030,16920 16760,11230 29380,27160 37970,47630 8500,20560 12790,43010 12790,67530 0,26160 -4700,49770 -14110,70820 -9410,20970 -23110,37060 -41110,48290 -17910,11140 -36820,16760 -56630,16760 -14520,0 -27570,-3060 -39040,-9160 -11560,-6110 -20970,-13790 -28400,-23120l0 125390 -43580 0zm39620 -225520c0,32940 6690,57290 19980,73060 13370,15760 29550,23690 48530,23690 19320,0 35830,-8170 49530,-24520 13790,-16340 20640,-41600 20640,-75860 0,-32690 -6690,-57120 -20140,-73380 -13460,-16260 -29470,-24350 -48130,-24350 -18490,0 -34830,8660 -49030,25920 -14280,17330 -21380,42420 -21380,75440z"/>
  <polygon class="fil3 str1" points="1107720,954300 4172250,954300 4389980,150000 889980,150000 "/>
  <polygon class="fil4" points="1812720,459250 1812720,270340 1745410,270340 1745410,231920 1925750,231920 1925750,270340 1858750,270340 1858750,459250 "/>
  <path id="1" class="fil4" d="M1921510 374850c0,-14500 3550,-28520 10690,-42070 7140,-13600 17250,-23920 30320,-31060 13070,-7150 27620,-10750 43760,-10750 24930,0 45300,8100 61230,24290 15930,16250 23860,36670 23860,61440 0,24980 -8040,45670 -24070,62070 -16090,16410 -36310,24610 -60700,24610 -15080,0 -29470,-3440 -43180,-10270 -13650,-6820 -24080,-16830 -31220,-30060 -7140,-13170 -10690,-29260 -10690,-48200zm44770 2330c0,16350 3860,28890 11590,37570 7780,8730 17300,13070 28680,13070 11320,0 20850,-4340 28520,-13070 7670,-8680 11540,-21330 11540,-37890 0,-16140 -3870,-28580 -11540,-37250 -7670,-8740 -17200,-13080 -28520,-13080 -11380,0 -20900,4340 -28680,13080 -7730,8670 -11590,21210 -11590,37570z"/>
  <path id="2" class="fil4" d="M2246210 345270l-39370 -6990c4440,-16080 12110,-27990 22960,-35720 10850,-7720 26990,-11590 48370,-11590 19420,0 33920,2280 43440,6880 9470,4610 16190,10430 20060,17520 3860,7090 5820,20050 5820,39000l-640 50800c0,14450 690,25130 2070,32010 1370,6880 3970,14240 7780,22070l-43180 0c-1120,-2860 -2540,-7090 -4190,-12700 -680,-2590 -1210,-4290 -1530,-5080 -7410,7300 -15350,12750 -23810,16400 -8470,3660 -17460,5510 -27040,5510 -16880,0 -30220,-4610 -39950,-13810 -9740,-9160 -14610,-20800 -14610,-34880 0,-9260 2220,-17560 6670,-24870 4440,-7250 10630,-12860 18680,-16720 7990,-3860 19520,-7250 34600,-10160 20320,-3810 34450,-7410 42290,-10690l0 -4390c0,-8470 -2070,-14500 -6200,-18150 -4180,-3600 -12010,-5400 -23490,-5400 -7780,0 -13810,1540 -18150,4660 -4390,3070 -7890,8520 -10580,16300zm58420 35240c-5560,1850 -14400,4070 -26520,6670 -12060,2590 -20000,5130 -23700,7560 -5660,4080 -8520,9160 -8520,15350 0,6140 2270,11380 6820,15820 4550,4450 10320,6670 17360,6670 7830,0 15350,-2590 22490,-7730 5240,-3960 8730,-8730 10370,-14440 1110,-3710 1700,-10800 1700,-21220l0 -8680z"/>
  <path id="3" class="fil4" d="M2387230 294470l40000 0 0 22490c14340,-17310 31430,-25990 51280,-25990 10530,0 19680,2170 27410,6510 7780,4340 14130,10900 19050,19690 7250,-8790 15080,-15350 23440,-19690 8360,-4340 17300,-6510 26830,-6510 12060,0 22280,2440 30690,7360 8360,4920 14600,12120 18730,21640 3020,6990 4500,18370 4500,34080l0 105200 -43500 0 0 -94030c0,-16350 -1480,-26880 -4500,-31590 -4020,-6200 -10260,-9320 -18620,-9320 -6090,0 -11860,1850 -17250,5560 -5350,3760 -9260,9210 -11640,16350 -2390,7200 -3550,18520 -3550,34030l0 79000 -43500 0 0 -90170c0,-15980 -790,-26350 -2330,-30960 -1530,-4650 -3910,-8150 -7190,-10420 -3230,-2280 -7680,-3390 -13230,-3390 -6720,0 -12750,1800 -18100,5400 -5400,3650 -9210,8840 -11530,15660 -2330,6830 -3500,18150 -3500,33920l0 79960 -43490 0 0 -164780z"/>
  <path id="4" class="fil4" d="M2671440 294470l40640 0 0 24180c5290,-8250 12380,-14920 21380,-20060 8990,-5080 19000,-7620 29950,-7620 19100,0 35350,7520 48680,22550 13340,14970 20010,35930 20010,62700 0,27570 -6730,48950 -20170,64240 -13440,15300 -29740,22920 -48890,22920 -9100,0 -17360,-1800 -24770,-5450 -7350,-3600 -15180,-9790 -23330,-18580l0 82450 -43500 0 0 -227330zm42860 79850c0,18570 3650,32280 11010,41170 7300,8830 16240,13280 26720,13280 10110,0 18520,-4070 25240,-12220 6720,-8150 10060,-21490 10060,-40060 0,-17360 -3440,-30220 -10370,-38630 -6880,-8410 -15460,-12600 -25670,-12600 -10630,0 -19470,4130 -26460,12390 -7030,8250 -10530,20480 -10530,36670z"/>
  <polygon id="5" class="fil4" points="2866650,459250 2866650,231920 2910150,231920 2910150,459250 "/>
  <path id="6" class="fil4" d="M2954860 272240l0 -40320 43500 0 0 40320 -43500 0zm0 187010l0 -164780 43500 0 0 164780 -43500 0z"/>
  <path id="7" class="fil4" d="M3024970 294470l24130 0 0 -12440c0,-13860 1480,-24230 4450,-31060 2960,-6880 8410,-12440 16350,-16720 7990,-4290 18040,-6460 30210,-6460 12440,0 24660,1910 36620,5720l-5550 30480c-7090,-1910 -13920,-2860 -20480,-2860 -6460,0 -11060,1480 -13870,4440 -2800,2970 -4230,8680 -4230,17150l0 11750 32700 0 0 34290 -32700 0 0 130490 -43500 0 0 -130490 -24130 0 0 -34290zm123190 -22230l0 -40320 43500 0 0 40320 -43500 0zm0 187010l0 -164780 43500 0 0 164780 -43500 0z"/>
  <path id="8" class="fil4" d="M3332260 407180l43500 7300c-5560,15930 -14400,28050 -26410,36410 -12060,8310 -27140,12490 -45190,12490 -28630,0 -49850,-9370 -63550,-28100 -10850,-15030 -16300,-33970 -16300,-56890 0,-27300 7140,-48730 21380,-64180 14230,-15510 32280,-23240 54080,-23240 24450,0 43760,8100 57940,24290 14130,16200 20910,41010 20270,74460l-108900 0c320,12910 3810,22960 10530,30160 6670,7200 15030,10790 24970,10790 6830,0 12550,-1850 17150,-5550 4660,-3710 8150,-9690 10530,-17940zm2540 -44130c-320,-12650 -3550,-22280 -9740,-28840 -6190,-6620 -13700,-9900 -22590,-9900 -9470,0 -17310,3490 -23500,10430 -6190,6930 -9200,16400 -9100,28310l64930 0z"/>
  <path id="9" class="fil4" d="M3455180 459250l-43490 0 0 -164780 40320 0 0 23390c6930,-11060 13170,-18310 18730,-21750 5560,-3440 11850,-5140 18890,-5140 9950,0 19530,2760 28740,8210l-13500 37990c-7350,-4760 -14180,-7140 -20480,-7140 -6140,0 -11320,1690 -15550,5020 -4240,3390 -7570,9420 -10010,18210 -2430,8780 -3650,27200 -3650,55190l0 50800z"/>
  <path class="fil5" d="M902990 2345900c0,186400 -151100,337500 -337500,337500 -186380,0 -337490,-151100 -337490,-337500 0,-186390 151110,-337490 337490,-337490 186400,0 337500,151100 337500,337490z"/>
  <path class="fil6" d="M301280 2534370l0 -208170c0,0 7390,-28330 31410,-31410l121330 0c0,0 24330,-11390 114550,161980l157670 -92390c0,0 29740,-10930 47360,11200 24710,30990 -4990,57060 -4990,57060l-192640 122660c0,0 -22800,17250 -51740,0l-76360 -115780 -9240 4620 50810 76680 310 139180c0,0 -112090,-17250 -188470,-125630z"/>
  <path class="fil6" d="M490360 2193170c0,46250 -37500,83760 -83760,83760 -46250,0 -83760,-37510 -83760,-83760 0,-46260 37510,-83760 83760,-83760 46260,0 83760,37500 83760,83760z"/>
  <path class="fil6" d="M510220 2335130l10020 -11090 60960 50810c0,0 -2300,5540 -28030,24940l-42950 -64660z"/>
  <polygon class="fil6" points="570120,2301260 677270,2208560 735480,2298490 633240,2393940 "/>
  <polygon class="fil6" points="616000,2388710 517460,2308340 638170,2196860 658800,2206720 552250,2300030 "/>
  <path class="fil6" d="M644640 2400260l102540 -93780 132420 32640 -93620 104090 -10160 -3220 9550 -10330c0,0 21250,-27410 -2850,-58640 0,0 -16860,-29270 -58430,-17870l-79450 47110z"/>
  <path class="fil6" d="M581470 1284000l332350 630350c5790,10960 1860,24730 -8790,30700 -3310,1870 -6910,2760 -10460,2760l0 90 -664850 0c-12130,0 -22000,-10200 -22000,-22740 0,-4640 1350,-8940 3670,-12510l331530 -628810c5760,-10960 19070,-15020 29690,-9050 3910,2200 6900,5440 8860,9210zm127640 336760l-146960 -278770 -295520 560450 591020 0 -148540 -281680z"/>
  <polygon class="fil7" points="562110,1338120 710730,1619980 859340,1901810 264890,1901810 413500,1619980 "/>
  <path class="fil8" d="M579380 1328570l297160 563590c5170,9800 1660,22110 -7860,27450 -2960,1670 -6170,2470 -9360,2470l0 80 -594430 0c-10840,0 -19670,-9120 -19670,-20330 0,-4150 1210,-8000 3290,-11190l296410 -562210c5160,-9800 17050,-13430 26550,-8100 3490,1980 6170,4870 7910,8240zm114130 301100l-131400 -249250 -264210 501100 528410 0 -132800 -251850z"/>
  <path class="fil8" d="M513980 1602310c-8360,-44610 14840,-63370 48180,-63370 33310,0 56490,18760 48190,63370 -10680,57220 -20960,97630 -34840,150190 -1950,7230 -8200,6810 -13350,6810 -5180,0 -11440,420 -13360,-6810 -13890,-52560 -24190,-92970 -34820,-150190zm48320 238380c-7630,0 -14340,-2570 -20050,-7690 -5730,-5130 -8560,-12290 -8560,-21450 0,-8130 2710,-14950 8180,-20600 5460,-5630 12130,-8430 20100,-8430 7910,0 14660,2800 20260,8430 5600,5650 8360,12470 8360,20600 0,9020 -2840,16180 -8480,21380 -5660,5190 -12230,7760 -19810,7760z"/>
  <g>
   <path class="fil6" d="M2539030 4563950l-715590 0 0 -48120 715590 0 24300 24060 -24300 24060zm0 -48120l24300 0 0 24060 -24300 -24060zm-24300 413780l0 -389720 48600 0 0 389720 -24300 24060 -24300 -24060zm48600 0l0 24060 -24300 0 24300 -24060zm-739890 -24060l715590 0 0 48120 -715590 0 -24300 -24060 24300 -24060zm0 48120l-24300 0 0 -24060 24300 24060zm24300 -413780l0 389720 -48600 0 0 -389720 24300 -24060 24300 24060zm-48600 0l0 -24060 24300 0 -24300 24060z"/>
  </g>
  <path class="fil6" d="M2027860 4765580l34910 -3440c2100,11590 6310,20060 12700,25500 6390,5440 15010,8140 25870,8140 11470,0 20130,-2410 25940,-7250 5830,-4810 8760,-10470 8760,-16930 0,-4170 -1240,-7690 -3690,-10630 -2420,-2910 -6720,-5450 -12820,-7580 -4160,-1460 -13650,-4000 -28500,-7680 -19110,-4750 -32510,-10570 -40230,-17480 -10860,-9700 -16270,-21510 -16270,-35470 0,-8960 2580,-17380 7650,-25200 5120,-7810 12460,-13740 22060,-17830 9630,-4100 21170,-6150 34800,-6150 22140,0 38860,4880 50040,14660 11220,9770 17070,22790 17650,39100l-35900 1240c-1520,-9090 -4770,-15600 -9760,-19560 -5000,-3970 -12510,-5980 -22490,-5980 -10310,0 -18400,2140 -24210,6390 -3760,2730 -5670,6380 -5670,10960 0,4180 1770,7740 5320,10680 4510,3810 15440,7720 32810,11820 17360,4050 30190,8310 38490,12640 8340,4380 14860,10320 19550,17890 4710,7560 7060,16900 7060,27980 0,10070 -2800,19510 -8460,28300 -5650,8800 -13620,15360 -23920,19610 -10320,4290 -23190,6430 -38580,6430 -22410,0 -39610,-5120 -51620,-15390 -12000,-10230 -19140,-25170 -21490,-44770z"/>
  <polygon class="fil6" points="2202370,4822540 2202370,4646770 2237120,4646770 2310060,4764570 2310060,4646770 2343240,4646770 2343240,4822540 2307370,4822540 2235540,4707020 2235540,4822540 "/>
 </g>
</svg>
