<?xml version="1.0" encoding="UTF-8"?>
<!DOCTYPE svg PUBLIC "-//W3C//DTD SVG 1.1//EN" "http://www.w3.org/Graphics/SVG/1.1/DTD/svg11.dtd">
<!-- Creator: CorelDRAW 2018 (64-Bit) -->
<svg xmlns="http://www.w3.org/2000/svg" xml:space="preserve" width="46mm" height="22mm" version="1.1" style="shape-rendering:geometricPrecision; text-rendering:geometricPrecision; image-rendering:optimizeQuality; fill-rule:evenodd; clip-rule:evenodd"
viewBox="0 0 4600000 2200000"
 xmlns:xlink="http://www.w3.org/1999/xlink">
 <defs>
  <style type="text/css">
   <![CDATA[
    .fil2 {fill:#FFF700}
    .fil3 {fill:#2B2A29;fill-rule:nonzero}
    .fil1 {fill:#F8F8F7;fill-rule:nonzero}
    .fil0 {fill:#17252B;fill-rule:nonzero}
    .fil4 {fill:#1C00FF;fill-rule:nonzero}
   ]]>
  </style>
 </defs>
 <g id="Скотч">
  <metadata id="CorelCorpID_0Corel-Layer"/>
  <g>
   <path class="fil0" d="M4600000 -10l-4599990 0 0 907210 1723820 1292790 1152320 0 1723850 -1292790 0 -907210zm0 907210l-1620 -880 0 -904620 1620 -1710 0 907210zm-1620 -905500l-4596740 0 -1630 -1710 4598370 1710zm-1722230 2198290l-530 -1700 1722760 -1291970 -1722230 1293670zm-1152320 0l560 -1700 1151230 0 -1151790 1700zm-1723820 -1292790l1630 -880 1722750 1291970 -1724380 -1291090zm1630 -905500l0 904620 0 -904620z"/>
  </g>
  <path class="fil1" d="M990760 559070l332350 630350c5790,10960 1860,24730 -8790,30700 -3310,1870 -6910,2760 -10460,2760l0 90 -664850 0c-12130,0 -22000,-10200 -22000,-22740 0,-4640 1350,-8940 3670,-12510l331530 -628810c5760,-10960 19070,-15020 29690,-9050 3910,2200 6900,5440 8860,9210zm127640 336760l-146960 -278770 -295520 560450 591020 0 -148540 -281680z"/>
  <polygon class="fil2" points="971400,613190 1120020,895050 1268630,1176880 674180,1176880 822790,895050 "/>
  <path class="fil3" d="M988670 603640l297160 563590c5170,9800 1660,22110 -7860,27450 -2960,1670 -6170,2470 -9360,2470l0 80 -594430 0c-10840,0 -19670,-9120 -19670,-20330 0,-4150 1210,-8000 3290,-11190l296410 -562210c5160,-9800 17050,-13430 26550,-8100 3490,1980 6170,4870 7910,8240zm114130 301100l-131400 -249250 -264210 501100 528410 0 -132800 -251850z"/>
  <path class="fil3" d="M923270 877380c-8360,-44610 14840,-63370 48180,-63370 33310,0 56490,18760 48190,63370 -10680,57220 -20960,97630 -34840,150190 -1950,7230 -8200,6810 -13350,6810 -5180,0 -11440,420 -13360,-6810 -13890,-52560 -24190,-92970 -34820,-150190zm48320 238380c-7630,0 -14340,-2570 -20050,-7690 -5730,-5130 -8560,-12290 -8560,-21450 0,-8130 2710,-14950 8180,-20600 5460,-5630 12130,-8430 20100,-8430 7910,0 14660,2800 20260,8430 5600,5650 8360,12470 8360,20600 0,9020 -2840,16180 -8480,21380 -5660,5190 -12230,7760 -19810,7760z"/>
  <g>
   <path class="fil1" d="M2658220 1214710l-715590 0 0 -48120 715590 0 24300 24060 -24300 24060zm0 -48120l24300 0 0 24060 -24300 -24060zm-24300 413780l0 -389720 48600 0 0 389720 -24300 24060 -24300 -24060zm48600 0l0 24060 -24300 0 24300 -24060zm-739890 -24060l715590 0 0 48120 -715590 0 -24300 -24060 24300 -24060zm0 48120l-24300 0 0 -24060 24300 24060zm24300 -413780l0 389720 -48600 0 0 -389720 24300 -24060 24300 24060zm-48600 0l0 -24060 24300 0 -24300 24060z"/>
  </g>
  <path class="fil1" d="M2147050 1416340l34910 -3440c2100,11590 6310,20060 12700,25500 6390,5440 15010,8140 25870,8140 11470,0 20130,-2410 25940,-7250 5830,-4810 8760,-10470 8760,-16930 0,-4170 -1240,-7690 -3690,-10630 -2420,-2910 -6720,-5450 -12820,-7580 -4160,-1460 -13650,-4000 -28500,-7680 -19110,-4750 -32510,-10570 -40230,-17480 -10860,-9700 -16270,-21510 -16270,-35470 0,-8960 2580,-17380 7650,-25200 5120,-7810 12460,-13740 22060,-17830 9630,-4100 21170,-6150 34800,-6150 22140,0 38860,4880 50040,14660 11220,9770 17070,22790 17650,39100l-35900 1240c-1520,-9090 -4770,-15600 -9760,-19560 -5000,-3970 -12510,-5980 -22490,-5980 -10310,0 -18400,2140 -24210,6390 -3760,2730 -5670,6380 -5670,10960 0,4180 1770,7740 5320,10680 4510,3810 15440,7720 32810,11820 17360,4050 30190,8310 38490,12640 8340,4380 14860,10320 19550,17890 4710,7560 7060,16900 7060,27980 0,10070 -2800,19510 -8460,28300 -5650,8800 -13620,15360 -23920,19610 -10320,4290 -23190,6430 -38580,6430 -22410,0 -39610,-5120 -51620,-15390 -12000,-10230 -19140,-25170 -21490,-44770z"/>
  <polygon class="fil1" points="2321560,1473300 2321560,1297530 2356310,1297530 2429250,1415330 2429250,1297530 2462430,1297530 2462430,1473300 2426560,1473300 2354730,1357780 2354730,1473300 "/>
  <g>
   <path class="fil4" d="M3966140 895080c0,186400 -151100,337500 -337500,337500 -186380,0 -337490,-151100 -337490,-337500 0,-186390 151110,-337490 337490,-337490 186400,0 337500,151100 337500,337490z"/>
   <path class="fil1" d="M3364430 1083550l0 -208170c0,0 7390,-28330 31410,-31410l121330 0c0,0 24330,-11390 114550,161980l157670 -92390c0,0 29740,-10930 47360,11200 24710,30990 -4990,57060 -4990,57060l-192640 122660c0,0 -22800,17250 -51740,0l-76360 -115780 -9240 4620 50810 76680 310 139180c0,0 -112090,-17250 -188470,-125630z"/>
   <path class="fil1" d="M3553510 742350c0,46250 -37500,83760 -83760,83760 -46250,0 -83760,-37510 -83760,-83760 0,-46260 37510,-83760 83760,-83760 46260,0 83760,37500 83760,83760z"/>
   <path class="fil1" d="M3573370 884310l10020 -11090 60960 50810c0,0 -2300,5540 -28030,24940l-42950 -64660z"/>
   <polygon class="fil1" points="3633270,850440 3740420,757740 3798630,847670 3696390,943120 "/>
   <polygon class="fil1" points="3679150,937890 3580610,857520 3701320,746040 3721950,755900 3615400,849210 "/>
   <path class="fil1" d="M3707790 949440l102540 -93780 132420 32640 -93620 104090 -10160 -3220 9550 -10330c0,0 21250,-27410 -2850,-58640 0,0 -16860,-29270 -58430,-17870l-79450 47110z"/>
  </g>
 </g>
</svg>
