<?xml version="1.0" encoding="UTF-8"?>
<!DOCTYPE svg PUBLIC "-//W3C//DTD SVG 1.1//EN" "http://www.w3.org/Graphics/SVG/1.1/DTD/svg11.dtd">
<!-- Creator: CorelDRAW 2018 (64-Bit) -->
<svg xmlns="http://www.w3.org/2000/svg" xml:space="preserve" width="46mm" height="22mm" version="1.1" style="shape-rendering:geometricPrecision; text-rendering:geometricPrecision; image-rendering:optimizeQuality; fill-rule:evenodd; clip-rule:evenodd"
viewBox="0 0 4600000 2200000"
 xmlns:xlink="http://www.w3.org/1999/xlink">
 <defs>
  <style type="text/css">
   <![CDATA[
    .fil2 {fill:#FFF700}
    .fil3 {fill:#2B2A29;fill-rule:nonzero}
    .fil1 {fill:#F8F8F7;fill-rule:nonzero}
    .fil5 {fill:#F8F8F7;fill-rule:nonzero}
    .fil0 {fill:#17252B;fill-rule:nonzero}
    .fil4 {fill:#1C00FF;fill-rule:nonzero}
   ]]>
  </style>
 </defs>
 <g id="Скотч">
  <metadata id="CorelCorpID_0Corel-Layer"/>
  <g>
   <path class="fil0" d="M0 2200010l4599990 0 0 -907210 -1723820 -1292790 -1152320 0 -1723850 1292790 0 907210zm0 -907210l1620 880 0 904620 -1620 1710 0 -907210zm1620 905500l4596740 0 1630 1710 -4598370 -1710zm1722230 -2198290l530 1700 -1722760 1291970 1722230 -1293670zm1152320 0l-560 1700 -1151230 0 1151790 -1700zm1723820 1292790l-1630 880 -1722750 -1291970 1724380 1291090zm-1630 905500l0 -904620 0 904620z"/>
  </g>
  <path class="fil1" d="M3609240 1640930l-332350 -630350c-5790,-10960 -1860,-24730 8790,-30700 3310,-1870 6910,-2760 10460,-2760l0 -90 664850 0c12130,0 22000,10200 22000,22740 0,4640 -1350,8940 -3670,12510l-331530 628810c-5760,10960 -19070,15020 -29690,9050 -3910,-2200 -6900,-5440 -8860,-9210zm-127640 -336760l146960 278770 295520 -560450 -591020 0 148540 281680z"/>
  <polygon class="fil2" points="3628600,1586810 3479980,1304950 3331370,1023120 3925820,1023120 3777210,1304950 "/>
  <path class="fil3" d="M3611330 1596360l-297160 -563590c-5170,-9800 -1660,-22110 7860,-27450 2960,-1670 6170,-2470 9360,-2470l0 -80 594430 0c10840,0 19670,9120 19670,20330 0,4150 -1210,8000 -3290,11190l-296410 562210c-5160,9800 -17050,13430 -26550,8100 -3490,-1980 -6170,-4870 -7910,-8240zm-114130 -301100l131400 249250 264210 -501100 -528410 0 132800 251850z"/>
  <path class="fil3" d="M3676730 1322620c8360,44610 -14840,63370 -48180,63370 -33310,0 -56490,-18760 -48190,-63370 10680,-57220 20960,-97630 34840,-150190 1950,-7230 8200,-6810 13350,-6810 5180,0 11440,-420 13360,6810 13890,52560 24190,92970 34820,150190zm-48320 -238380c7630,0 14340,2570 20050,7690 5730,5130 8560,12290 8560,21450 0,8130 -2710,14950 -8180,20600 -5460,5630 -12130,8430 -20100,8430 -7910,0 -14660,-2800 -20260,-8430 -5600,-5650 -8360,-12470 -8360,-20600 0,-9020 2840,-16180 8480,-21380 5660,-5190 12230,-7760 19810,-7760z"/>
  <g>
   <path class="fil4" d="M633860 1304920c0,-186400 151100,-337500 337500,-337500 186380,0 337490,151100 337490,337500 0,186390 -151110,337490 -337490,337490 -186400,0 -337500,-151100 -337500,-337490z"/>
   <path class="fil1" d="M1235570 1116450l0 208170c0,0 -7390,28330 -31410,31410l-121330 0c0,0 -24330,11390 -114550,-161980l-157670 92390c0,0 -29740,10930 -47360,-11200 -24710,-30990 4990,-57060 4990,-57060l192640 -122660c0,0 22800,-17250 51740,0l76360 115780 9240 -4620 -50810 -76680 -310 -139180c0,0 112090,17250 188470,125630z"/>
   <path class="fil1" d="M1046490 1457650c0,-46250 37500,-83760 83760,-83760 46250,0 83760,37510 83760,83760 0,46260 -37510,83760 -83760,83760 -46260,0 -83760,-37500 -83760,-83760z"/>
   <path class="fil1" d="M1026630 1315690l-10020 11090 -60960 -50810c0,0 2300,-5540 28030,-24940l42950 64660z"/>
   <polygon class="fil1" points="966730,1349560 859580,1442260 801370,1352330 903610,1256880 "/>
   <polygon class="fil1" points="920850,1262110 1019390,1342480 898680,1453960 878050,1444100 984600,1350790 "/>
   <path class="fil1" d="M892210 1250560l-102540 93780 -132420 -32640 93620 -104090 10160 3220 -9550 10330c0,0 -21250,27410 2850,58640 0,0 16860,29270 58430,17870l79450 -47110z"/>
  </g>
  <g>
   <path class="fil5" d="M1941780 985290l715590 0 0 48120 -715590 0 -24300 -24060 24300 -24060zm0 48120l-24300 0 0 -24060 24300 24060zm24300 -413800l0 389740 -48600 0 0 -389740 24300 -24060 24300 24060zm-48600 0l0 -24060 24300 0 -24300 24060zm739890 24060l-715590 0 0 -48120 715590 0 24300 24060 -24300 24060zm0 -48120l24300 0 0 24060 -24300 -24060zm-24300 413800l0 -389740 48600 0 0 389740 -24300 24060 -24300 -24060zm48600 0l0 24060 -24300 0 24300 -24060z"/>
  </g>
  <polygon class="fil5" points="2525460,726620 2525460,900900 2489560,900900 2489560,756330 2400690,756330 2400690,726620 "/>
  <path class="fil5" d="M2382660 813430c0,17930 -2710,32980 -8110,45170 -4020,8970 -9540,17040 -16510,24130 -6960,7120 -14600,12410 -22900,15890 -11050,4630 -23790,6960 -38240,6960 -26150,0 -47030,-8060 -62730,-24150 -15690,-16110 -23530,-38500 -23530,-67180 0,-28430 7790,-50690 23360,-66720 15550,-16090 36380,-24100 62410,-24100 26360,0 47360,7970 62920,23970 15550,15950 23330,37970 23330,66030zm-36870 1190c0,-19910 -4650,-35020 -13940,-45330 -9280,-10260 -21090,-15420 -35350,-15420 -14330,0 -26040,5110 -35240,15300 -9160,10230 -13740,25540 -13740,45940 0,20170 4450,35230 13400,45130 8910,9930 20770,14890 35580,14890 14740,0 26680,-5030 35710,-15040 9040,-10070 13580,-25210 13580,-45470z"/>
  <polygon class="fil5" points="2142850,726620 2142850,872680 2195330,872680 2195330,902390 2054730,902390 2054730,872680 2106950,872680 2106950,726620 "/>
 </g>
</svg>
