<?xml version="1.0" encoding="UTF-8"?>
<!DOCTYPE svg PUBLIC "-//W3C//DTD SVG 1.1//EN" "http://www.w3.org/Graphics/SVG/1.1/DTD/svg11.dtd">
<!-- Creator: CorelDRAW 2018 (64-Bit) -->
<svg xmlns="http://www.w3.org/2000/svg" xml:space="preserve" width="46mm" height="28mm" version="1.1" style="shape-rendering:geometricPrecision; text-rendering:geometricPrecision; image-rendering:optimizeQuality; fill-rule:evenodd; clip-rule:evenodd"
viewBox="0 0 4600000 2800000"
 xmlns:xlink="http://www.w3.org/1999/xlink">
 <defs>
  <style type="text/css">
   <![CDATA[
    .fil2 {fill:#FFF700}
    .fil3 {fill:#2B2A29;fill-rule:nonzero}
    .fil5 {fill:#F8F8F7;fill-rule:nonzero}
    .fil1 {fill:#F8F8F7;fill-rule:nonzero}
    .fil0 {fill:#17252B;fill-rule:nonzero}
    .fil4 {fill:#1C00FF;fill-rule:nonzero}
   ]]>
  </style>
 </defs>
 <g id="Скотч">
  <metadata id="CorelCorpID_0Corel-Layer"/>
  <g>
   <path class="fil0" d="M4600000 10l-4599860 0 -150 770070 1290130 2029930 2019780 0 1290100 -2029930 0 -770070zm0 770070l-1660 -480 0 -767950 1660 -1640 0 770070zm-1660 -768430l-4596550 0 -1650 -1640 4598200 1640zm-1288440 2798360l-910 -1680 1289350 -2028730 -1288440 2030410zm-2019780 0l870 -1680 2018000 0 -2018870 1680zm-1290130 -2029930l1650 -480 1289350 2028730 -1291000 -2028250zm1800 -768430l-150 767950 150 -767950z"/>
  </g>
  <path class="fil1" d="M1949160 1918870l332350 630350c5790,10960 1860,24730 -8790,30700 -3310,1870 -6910,2760 -10460,2760l0 90 -664850 0c-12130,0 -22000,-10200 -22000,-22740 0,-4640 1350,-8940 3670,-12510l331530 -628810c5760,-10960 19070,-15020 29690,-9050 3910,2200 6900,5440 8860,9210zm127640 336760l-146960 -278770 -295520 560450 591020 0 -148540 -281680z"/>
  <polygon class="fil2" points="1929800,1972990 2078420,2254850 2227030,2536680 1632580,2536680 1781190,2254850 "/>
  <path class="fil3" d="M1947070 1963440l297160 563590c5170,9800 1660,22110 -7860,27450 -2960,1670 -6170,2470 -9360,2470l0 80 -594430 0c-10840,0 -19670,-9120 -19670,-20330 0,-4150 1210,-8000 3290,-11190l296410 -562210c5160,-9800 17050,-13430 26550,-8100 3490,1980 6170,4870 7910,8240zm114130 301100l-131400 -249250 -264210 501100 528410 0 -132800 -251850z"/>
  <path class="fil3" d="M1881670 2237180c-8360,-44610 14840,-63370 48180,-63370 33310,0 56490,18760 48190,63370 -10680,57220 -20960,97630 -34840,150190 -1950,7230 -8200,6810 -13350,6810 -5180,0 -11440,420 -13360,-6810 -13890,-52560 -24190,-92970 -34820,-150190zm48320 238380c-7630,0 -14340,-2570 -20050,-7690 -5730,-5130 -8560,-12290 -8560,-21450 0,-8130 2710,-14950 8180,-20600 5460,-5630 12130,-8430 20100,-8430 7910,0 14660,2800 20260,8430 5600,5650 8360,12470 8360,20600 0,9020 -2840,16180 -8480,21380 -5660,5190 -12230,7760 -19810,7760z"/>
  <g>
   <path class="fil4" d="M3003250 2251500c0,186400 -151100,337500 -337500,337500 -186380,0 -337490,-151100 -337490,-337500 0,-186390 151110,-337490 337490,-337490 186400,0 337500,151100 337500,337490z"/>
   <path class="fil5" d="M2401540 2439970l0 -208170c0,0 7390,-28330 31410,-31410l121330 0c0,0 24330,-11390 114550,161980l157670 -92390c0,0 29740,-10930 47360,11200 24710,30990 -4990,57060 -4990,57060l-192640 122660c0,0 -22800,17250 -51740,0l-76360 -115780 -9240 4620 50810 76680 310 139180c0,0 -112090,-17250 -188470,-125630z"/>
   <path class="fil5" d="M2590620 2098770c0,46250 -37500,83760 -83760,83760 -46250,0 -83760,-37510 -83760,-83760 0,-46260 37510,-83760 83760,-83760 46260,0 83760,37500 83760,83760z"/>
   <path class="fil5" d="M2610480 2240730l10020 -11090 60960 50810c0,0 -2300,5540 -28030,24940l-42950 -64660z"/>
   <polygon class="fil5" points="2670380,2206860 2777530,2114160 2835740,2204090 2733500,2299540 "/>
   <polygon class="fil5" points="2716260,2294310 2617720,2213940 2738430,2102460 2759060,2112320 2652510,2205630 "/>
   <path class="fil5" d="M2744900 2305860l102540 -93780 132420 32640 -93620 104090 -10160 -3220 9550 -10330c0,0 21250,-27410 -2850,-58640 0,0 -16860,-29270 -58430,-17870l-79450 47110z"/>
  </g>
  <g>
   <path class="fil1" d="M2197440 1404880l-715590 0 0 -48120 715590 0 24300 24060 -24300 24060zm0 -48120l24300 0 0 24060 -24300 -24060zm-24300 413800l0 -389740 48600 0 0 389740 -24300 24060 -24300 -24060zm48600 0l0 24060 -24300 0 24300 -24060zm-739890 -24060l715590 0 0 48120 -715590 0 -24300 -24060 24300 -24060zm0 48120l-24300 0 0 -24060 24300 24060zm24300 -413800l0 389740 -48600 0 0 -389740 24300 -24060 24300 24060zm-48600 0l0 -24060 24300 0 -24300 24060z"/>
  </g>
  <polygon class="fil1" points="1613760,1663550 1613760,1489270 1649660,1489270 1649660,1633840 1738530,1633840 1738530,1663550 "/>
  <path class="fil1" d="M1756560 1576740c0,-17930 2710,-32980 8110,-45170 4020,-8970 9540,-17040 16510,-24130 6960,-7120 14600,-12410 22900,-15890 11050,-4630 23790,-6960 38240,-6960 26150,0 47030,8060 62730,24150 15690,16110 23530,38500 23530,67180 0,28430 -7790,50690 -23360,66720 -15550,16090 -36380,24100 -62410,24100 -26360,0 -47360,-7970 -62920,-23970 -15550,-15950 -23330,-37970 -23330,-66030zm36870 -1190c0,19910 4650,35020 13940,45330 9280,10260 21090,15420 35350,15420 14330,0 26040,-5110 35240,-15300 9160,-10230 13740,-25540 13740,-45940 0,-20170 -4450,-35230 -13400,-45130 -8910,-9930 -20770,-14890 -35580,-14890 -14740,0 -26680,5030 -35710,15040 -9040,10070 -13580,25210 -13580,45470z"/>
  <polygon class="fil1" points="1996370,1663550 1996370,1517490 1943890,1517490 1943890,1487780 2084490,1487780 2084490,1517490 2032270,1517490 2032270,1663550 "/>
 </g>
</svg>
